<!--?xml version="1.0" standalone="no"?-->
              <svg id="sw-js-blob-svg" viewBox="0 0 100 100" xmlns="http://www.w3.org/2000/svg" version="1.1">
                    <defs> 
                        <linearGradient id="sw-gradient" x1="0" x2="1" y1="1" y2="0">
                            <stop id="stop1" stop-color="rgba(211.812, 2.466, 89.694, 1)" offset="0%"></stop>
                            <stop id="stop2" stop-color="rgba(224.975, 224.975, 224.975, 1)" offset="100%"></stop>
                        </linearGradient>
                    </defs>
                <path fill="url(#sw-gradient)" d="M14.3,-18.4C19.8,-12.4,26.4,-9.1,27.6,-4.6C28.7,-0.1,24.3,5.7,20.6,11.8C17,18,14.2,24.6,8.3,29.8C2.4,35,-6.6,38.9,-12.7,36.1C-18.7,33.3,-21.9,23.9,-25.9,15.6C-29.9,7.3,-34.7,0.2,-34.4,-6.8C-34,-13.7,-28.4,-20.5,-21.8,-26.3C-15.2,-32.1,-7.6,-37,-1.6,-35.1C4.4,-33.2,8.7,-24.4,14.3,-18.4Z" width="100%" height="100%" transform="translate(50 50)" stroke-width="0" style="transition: all 0.3s ease 0s;" stroke="url(#sw-gradient)"></path>
              </svg>