<svg id="visual" viewBox="0 0 900 600" width="900" height="600" xmlns="http://www.w3.org/2000/svg" xmlns:xlink="http://www.w3.org/1999/xlink" version="1.1"><rect x="0" y="0" width="900" height="600" fill="#fff"></rect><defs><linearGradient id="grad1_0" x1="33.3%" y1="0%" x2="100%" y2="100%"><stop offset="20%" stop-color="#ffffff" stop-opacity="1"></stop><stop offset="80%" stop-color="#ffffff" stop-opacity="1"></stop></linearGradient></defs><defs><linearGradient id="grad2_0" x1="0%" y1="0%" x2="66.7%" y2="100%"><stop offset="20%" stop-color="#ffffff" stop-opacity="1"></stop><stop offset="80%" stop-color="#ffffff" stop-opacity="1"></stop></linearGradient></defs><g transform="translate(900, 0)"><path d="M0 432.7C-73.3 417.9 -146.5 403.1 -213 368.9C-279.5 334.7 -339.2 281.1 -374.7 216.3C-410.2 151.6 -421.4 75.8 -432.7 0L0 0Z" fill="#da5552"></path></g><g transform="translate(0, 600)"><path d="M0 -432.7C77.2 -422.2 154.4 -411.8 216.3 -374.7C278.3 -337.6 325 -273.9 358.5 -207C392.1 -140.1 412.4 -70.1 432.7 0L0 0Z" fill="#da5552"></path></g></svg>