<!--?xml version="1.0" standalone="no"?-->
              <svg id="sw-js-blob-svg" viewBox="0 0 100 100" xmlns="http://www.w3.org/2000/svg" version="1.1">
                    <defs> 
                        <linearGradient id="sw-gradient" x1="0" x2="1" y1="1" y2="0">
                            <stop id="stop1" stop-color="rgba(255, 0, 119, 1)" offset="0%"></stop>
                            <stop id="stop2" stop-color="rgba(243, 208, 230, 1)" offset="100%"></stop>
                        </linearGradient>
                    </defs>
                <path fill="url(#sw-gradient)" d="M25.8,-29.1C30.9,-26.4,31,-15.9,31.9,-6.3C32.8,3.3,34.5,12.1,32.1,20.6C29.7,29.2,23.1,37.4,15.8,37.4C8.5,37.4,0.4,29.3,-6.8,24.2C-14,19.2,-20.2,17.2,-26.2,12.4C-32.2,7.6,-38,0,-38.7,-8.8C-39.5,-17.5,-35.3,-27.3,-28,-29.7C-20.7,-32.1,-10.4,-27.1,0,-27.1C10.3,-27,20.6,-31.9,25.8,-29.1Z" width="100%" height="100%" transform="translate(50 50)" stroke-width="0" style="transition: all 0.3s ease 0s;" stroke="url(#sw-gradient)"></path>
              </svg>